<svg xmlns="http://www.w3.org/2000/svg" xmlns:xlink="http://www.w3.org/1999/xlink" width="660" zoomAndPan="magnify" viewBox="0 0 495 202.499994" height="270" preserveAspectRatio="xMidYMid meet" version="1.0"><defs><g/></defs><path fill="#05d561" d="M 76.390625 29.132812 C 74.4375 29.132812 72.488281 29.210938 70.546875 29.375 C 68.601562 29.535156 66.664062 29.777344 64.742188 30.101562 C 62.816406 30.425781 60.90625 30.832031 59.015625 31.316406 C 57.125 31.796875 55.257812 32.359375 53.414062 33 C 51.570312 33.640625 49.753906 34.359375 47.972656 35.148438 C 46.1875 35.941406 44.4375 36.808594 42.726562 37.746094 C 41.011719 38.6875 39.34375 39.695312 37.714844 40.773438 C 36.085938 41.851562 34.507812 42.996094 32.972656 44.210938 C 31.441406 45.421875 29.960938 46.695312 28.535156 48.027344 C 27.105469 49.363281 25.738281 50.757812 24.425781 52.207031 C 23.117188 53.65625 21.867188 55.160156 20.683594 56.714844 C 19.496094 58.269531 18.378906 59.871094 17.324219 61.519531 C 16.273438 63.167969 15.289062 64.855469 14.378906 66.585938 C 13.46875 68.316406 12.628906 70.082031 11.867188 71.882812 C 11.101562 73.683594 10.414062 75.515625 9.800781 77.375 C 9.1875 79.230469 8.65625 81.113281 8.199219 83.015625 C 7.746094 84.917969 7.371094 86.839844 7.074219 88.773438 C 6.777344 90.707031 6.5625 92.652344 6.429688 94.605469 C 6.296875 96.558594 6.246094 98.511719 6.273438 100.46875 C 6.304688 102.425781 6.414062 104.378906 6.605469 106.324219 C 6.796875 108.273438 7.070312 110.210938 7.425781 112.136719 C 7.777344 114.058594 8.210938 115.964844 8.722656 117.855469 C 9.234375 119.742188 9.824219 121.609375 10.492188 123.445312 C 11.160156 125.285156 11.902344 127.09375 12.71875 128.871094 C 13.539062 130.648438 14.429688 132.386719 15.390625 134.089844 C 16.355469 135.792969 17.386719 137.453125 18.488281 139.066406 C 19.589844 140.683594 20.757812 142.25 21.988281 143.769531 C 23.21875 145.285156 24.511719 146.75 25.867188 148.160156 C 27.21875 149.570312 28.628906 150.921875 30.097656 152.214844 C 31.5625 153.503906 33.082031 154.734375 34.648438 155.898438 C 36.21875 157.0625 37.832031 158.160156 39.492188 159.1875 C 41.152344 160.21875 42.851562 161.175781 44.589844 162.0625 L 64.917969 121.128906 L 47.488281 121.128906 L 70.59375 73.296875 L 95.769531 73.296875 L 76.390625 55.46875 L 26.59375 101.320312 L 41.253906 101.320312 L 41.253906 152.578125 L 37.578125 149.71875 C 36.558594 148.921875 35.558594 148.097656 34.589844 147.238281 C 33.617188 146.378906 32.671875 145.492188 31.753906 144.578125 C 30.835938 143.660156 29.949219 142.714844 29.089844 141.746094 C 28.230469 140.773438 27.398438 139.777344 26.601562 138.753906 C 25.804688 137.734375 25.039062 136.6875 24.304688 135.617188 C 23.570312 134.546875 22.867188 133.457031 22.199219 132.34375 C 21.535156 131.230469 20.902344 130.097656 20.304688 128.945312 C 19.707031 127.796875 19.144531 126.625 18.617188 125.441406 C 18.089844 124.253906 17.601562 123.050781 17.148438 121.835938 C 16.699219 120.617188 16.285156 119.386719 15.90625 118.144531 C 15.53125 116.902344 15.191406 115.652344 14.890625 114.386719 C 14.589844 113.125 14.332031 111.855469 14.109375 110.574219 C 13.886719 109.296875 13.703125 108.011719 13.5625 106.71875 C 13.417969 105.429688 13.316406 104.136719 13.25 102.839844 C 13.1875 101.542969 13.164062 100.242188 13.179688 98.945312 C 13.195312 97.648438 13.25 96.351562 13.347656 95.054688 C 13.441406 93.761719 13.578125 92.46875 13.753906 91.183594 C 13.925781 89.894531 14.140625 88.617188 14.394531 87.34375 C 14.648438 86.070312 14.941406 84.804688 15.269531 83.550781 C 15.601562 82.292969 15.972656 81.050781 16.378906 79.816406 C 16.785156 78.585938 17.230469 77.367188 17.710938 76.160156 C 18.195312 74.957031 18.710938 73.765625 19.265625 72.59375 C 19.824219 71.421875 20.414062 70.265625 21.039062 69.128906 C 21.664062 67.992188 22.324219 66.875 23.019531 65.78125 C 23.714844 64.683594 24.441406 63.609375 25.203125 62.558594 C 25.960938 61.507812 26.753906 60.480469 27.578125 59.480469 C 28.398438 58.476562 29.253906 57.5 30.136719 56.550781 C 31.019531 55.601562 31.929688 54.679688 32.871094 53.785156 C 33.808594 52.894531 34.777344 52.03125 35.769531 51.195312 C 36.761719 50.363281 37.777344 49.5625 38.820312 48.789062 C 39.863281 48.019531 40.925781 47.28125 42.015625 46.574219 C 43.101562 45.871094 44.210938 45.199219 45.339844 44.5625 C 46.464844 43.925781 47.613281 43.324219 48.777344 42.757812 C 49.945312 42.191406 51.125 41.664062 52.324219 41.171875 C 53.519531 40.675781 54.734375 40.222656 55.957031 39.804688 C 57.183594 39.382812 58.421875 39.003906 59.671875 38.664062 C 60.917969 38.320312 62.179688 38.019531 63.445312 37.753906 C 64.714844 37.488281 65.988281 37.265625 67.269531 37.078125 C 68.550781 36.894531 69.835938 36.746094 71.128906 36.640625 C 72.417969 36.535156 73.710938 36.46875 75.003906 36.441406 C 76.300781 36.414062 77.59375 36.429688 78.886719 36.484375 C 80.179688 36.535156 81.472656 36.628906 82.757812 36.761719 C 84.046875 36.894531 85.332031 37.070312 86.609375 37.28125 C 87.886719 37.492188 89.15625 37.746094 90.417969 38.035156 C 91.679688 38.324219 92.929688 38.65625 94.171875 39.023438 C 95.414062 39.390625 96.644531 39.796875 97.859375 40.242188 C 99.078125 40.683594 100.277344 41.164062 101.464844 41.683594 C 102.652344 42.203125 103.824219 42.753906 104.976562 43.34375 C 106.128906 43.9375 107.265625 44.5625 108.378906 45.222656 C 109.492188 45.882812 110.585938 46.574219 111.660156 47.304688 C 112.730469 48.03125 113.78125 48.789062 114.808594 49.582031 C 115.832031 50.375 116.832031 51.199219 117.808594 52.054688 C 118.785156 52.90625 119.730469 53.792969 120.652344 54.703125 C 121.574219 55.617188 122.464844 56.558594 123.328125 57.523438 C 124.191406 58.492188 125.023438 59.484375 125.828125 60.503906 C 126.628906 61.523438 127.398438 62.566406 128.136719 63.632812 C 128.875 64.699219 129.582031 65.789062 130.253906 66.898438 C 130.921875 68.007812 131.558594 69.140625 132.164062 70.289062 C 132.765625 71.4375 133.332031 72.605469 133.863281 73.789062 C 134.390625 74.976562 134.886719 76.175781 135.34375 77.390625 C 135.800781 78.605469 136.21875 79.832031 136.601562 81.074219 C 136.980469 82.3125 137.324219 83.566406 137.628906 84.828125 C 137.933594 86.089844 138.199219 87.359375 138.425781 88.636719 C 138.652344 89.917969 138.839844 91.199219 138.988281 92.492188 C 139.136719 93.78125 139.246094 95.074219 139.3125 96.371094 C 139.382812 97.667969 139.410156 98.964844 139.402344 100.261719 C 139.390625 101.5625 139.339844 102.859375 139.25 104.152344 C 139.15625 105.449219 139.027344 106.742188 138.859375 108.027344 C 138.6875 109.316406 138.480469 110.597656 138.230469 111.871094 C 137.980469 113.144531 137.695312 114.410156 137.367188 115.667969 C 137.042969 116.925781 136.679688 118.167969 136.277344 119.402344 C 135.875 120.636719 135.433594 121.859375 134.957031 123.066406 C 134.476562 124.273438 133.964844 125.464844 133.414062 126.636719 C 132.863281 127.8125 132.277344 128.972656 131.65625 130.109375 C 131.035156 131.25 130.378906 132.367188 129.6875 133.46875 C 129 134.566406 128.273438 135.640625 127.519531 136.695312 C 126.761719 137.75 125.972656 138.78125 125.15625 139.785156 C 124.335938 140.789062 123.484375 141.769531 122.605469 142.722656 C 121.726562 143.675781 120.820312 144.601562 119.882812 145.496094 C 118.945312 146.394531 117.984375 147.261719 116.996094 148.097656 C 116.003906 148.9375 114.992188 149.742188 113.953125 150.515625 C 112.914062 151.292969 111.851562 152.035156 110.765625 152.742188 C 109.683594 153.453125 108.578125 154.128906 107.449219 154.769531 C 106.324219 155.410156 105.179688 156.015625 104.015625 156.585938 C 102.855469 157.15625 101.675781 157.691406 100.480469 158.1875 C 99.28125 158.6875 98.074219 159.148438 96.847656 159.570312 C 95.625 159.992188 94.386719 160.378906 93.140625 160.722656 C 91.894531 161.070312 90.636719 161.378906 89.367188 161.648438 C 88.101562 161.917969 86.828125 162.148438 85.546875 162.335938 C 84.265625 162.527344 82.980469 162.679688 81.691406 162.789062 C 80.402344 162.902344 79.109375 162.972656 77.816406 163.003906 C 76.519531 163.035156 75.226562 163.027344 73.933594 162.976562 C 72.640625 162.929688 71.347656 162.839844 70.058594 162.714844 C 68.769531 162.585938 67.488281 162.417969 66.210938 162.210938 C 64.929688 162.003906 63.660156 161.757812 62.398438 161.46875 C 61.136719 161.183594 59.882812 160.859375 58.636719 160.496094 L 53.441406 165.820312 C 54.640625 166.238281 55.851562 166.621094 57.070312 166.972656 C 58.289062 167.324219 59.519531 167.640625 60.753906 167.925781 C 61.992188 168.210938 63.234375 168.460938 64.484375 168.675781 C 65.738281 168.894531 66.992188 169.078125 68.253906 169.222656 C 69.511719 169.371094 70.777344 169.488281 72.042969 169.566406 C 73.308594 169.644531 74.578125 169.691406 75.847656 169.699219 C 77.117188 169.710938 78.382812 169.6875 79.652344 169.628906 C 80.917969 169.570312 82.183594 169.476562 83.445312 169.347656 C 84.710938 169.21875 85.96875 169.058594 87.222656 168.859375 C 88.476562 168.664062 89.722656 168.433594 90.964844 168.171875 C 92.207031 167.90625 93.4375 167.609375 94.664062 167.277344 C 95.890625 166.945312 97.105469 166.582031 98.308594 166.183594 C 99.515625 165.785156 100.710938 165.355469 101.890625 164.890625 C 103.074219 164.429688 104.242188 163.933594 105.398438 163.410156 C 106.554688 162.882812 107.695312 162.324219 108.820312 161.738281 C 109.945312 161.148438 111.050781 160.527344 112.144531 159.878906 C 113.234375 159.230469 114.308594 158.554688 115.363281 157.847656 C 116.417969 157.136719 117.453125 156.402344 118.46875 155.640625 C 119.484375 154.875 120.476562 154.085938 121.449219 153.265625 C 122.421875 152.449219 123.371094 151.605469 124.296875 150.734375 C 125.226562 149.867188 126.128906 148.972656 127.003906 148.050781 C 127.882812 147.132812 128.738281 146.191406 129.5625 145.226562 C 130.390625 144.261719 131.191406 143.273438 131.964844 142.265625 C 132.738281 141.257812 133.484375 140.226562 134.203125 139.179688 C 134.917969 138.128906 135.609375 137.058594 136.269531 135.972656 C 136.929688 134.886719 137.558594 133.78125 138.160156 132.660156 C 138.757812 131.539062 139.328125 130.402344 139.867188 129.25 C 140.40625 128.097656 140.914062 126.929688 141.386719 125.75 C 141.863281 124.570312 142.308594 123.378906 142.71875 122.175781 C 143.128906 120.972656 143.507812 119.757812 143.851562 118.53125 C 144.199219 117.308594 144.507812 116.074219 144.789062 114.832031 C 145.066406 113.589844 145.308594 112.34375 145.519531 111.085938 C 145.730469 109.832031 145.90625 108.574219 146.050781 107.308594 C 146.191406 106.042969 146.300781 104.777344 146.375 103.503906 C 146.449219 102.234375 146.488281 100.960938 146.492188 99.691406 C 146.496094 98.417969 146.46875 97.144531 146.40625 95.875 C 146.339844 94.601562 146.242188 93.335938 146.109375 92.070312 C 145.976562 90.804688 145.808594 89.542969 145.609375 88.285156 C 145.40625 87.027344 145.171875 85.777344 144.90625 84.535156 C 144.636719 83.292969 144.332031 82.054688 143.996094 80.828125 C 143.664062 79.601562 143.292969 78.382812 142.890625 77.175781 C 142.492188 75.96875 142.054688 74.773438 141.589844 73.589844 C 141.125 72.40625 140.625 71.234375 140.097656 70.078125 C 139.566406 68.921875 139.003906 67.78125 138.414062 66.65625 C 137.824219 65.53125 137.203125 64.421875 136.550781 63.328125 C 135.898438 62.238281 135.21875 61.164062 134.507812 60.109375 C 133.796875 59.054688 133.058594 58.019531 132.292969 57.003906 C 131.527344 55.988281 130.734375 54.996094 129.917969 54.023438 C 129.097656 53.050781 128.25 52.101562 127.378906 51.175781 C 126.507812 50.253906 125.613281 49.351562 124.695312 48.472656 C 123.773438 47.597656 122.832031 46.746094 121.867188 45.921875 C 120.898438 45.09375 119.910156 44.296875 118.902344 43.523438 C 117.894531 42.753906 116.863281 42.007812 115.816406 41.292969 C 114.765625 40.578125 113.699219 39.890625 112.609375 39.234375 C 111.523438 38.578125 110.421875 37.949219 109.300781 37.351562 C 108.179688 36.753906 107.042969 36.1875 105.890625 35.652344 C 104.742188 35.117188 103.574219 34.613281 102.398438 34.144531 C 101.21875 33.671875 100.027344 33.230469 98.824219 32.824219 C 97.625 32.417969 96.410156 32.042969 95.1875 31.703125 C 93.964844 31.363281 92.734375 31.054688 91.496094 30.78125 C 90.257812 30.507812 89.011719 30.265625 87.757812 30.058594 C 86.503906 29.855469 85.25 29.683594 83.988281 29.542969 C 82.726562 29.40625 81.460938 29.304688 80.195312 29.234375 C 78.925781 29.167969 77.660156 29.132812 76.390625 29.132812 Z M 76.390625 29.132812 " fill-opacity="1" fill-rule="nonzero"/><path fill="#05d561" d="M 70.796875 145.171875 C 72.648438 145.394531 74.507812 145.507812 76.371094 145.507812 C 79.71875 145.519531 83.03125 145.167969 86.300781 144.449219 C 89.570312 143.730469 92.726562 142.664062 95.761719 141.25 C 98.800781 139.835938 101.648438 138.105469 104.304688 136.0625 C 106.964844 134.019531 109.367188 131.714844 111.519531 129.140625 L 111.519531 101.320312 L 126.179688 101.320312 L 97.039062 74.476562 L 80.476562 101.304688 L 104.375 101.304688 Z M 70.796875 145.171875 " fill-opacity="1" fill-rule="nonzero"/><path fill="#ffffff" d="M 116.078125 105.890625 L 116.078125 130.738281 L 115.570312 131.359375 C 114.394531 132.816406 113.140625 134.207031 111.808594 135.523438 C 110.476562 136.84375 109.074219 138.082031 107.605469 139.242188 C 106.136719 140.40625 104.605469 141.480469 103.015625 142.472656 C 101.425781 143.460938 99.785156 144.359375 98.097656 145.164062 C 96.40625 145.972656 94.675781 146.679688 92.910156 147.292969 C 91.140625 147.90625 89.34375 148.417969 87.515625 148.828125 C 85.691406 149.238281 83.847656 149.546875 81.988281 149.75 C 80.125 149.953125 78.261719 150.054688 76.390625 150.046875 C 72.960938 150.046875 69.566406 149.703125 66.207031 149.019531 L 62.671875 148.316406 L 95.15625 105.890625 L 72.296875 105.890625 L 89.578125 77.894531 L 73.472656 77.894531 L 54.765625 116.554688 L 72.285156 116.554688 L 48.597656 164.222656 L 57.3125 155.304688 L 58.652344 155.726562 C 59.683594 156.054688 60.726562 156.351562 61.777344 156.621094 C 62.828125 156.890625 63.882812 157.128906 64.945312 157.339844 C 66.007812 157.550781 67.078125 157.730469 68.152344 157.882812 C 69.222656 158.035156 70.300781 158.15625 71.378906 158.246094 C 72.460938 158.339844 73.542969 158.402344 74.625 158.433594 C 75.707031 158.464844 76.792969 158.46875 77.875 158.4375 C 78.957031 158.410156 80.039062 158.351562 81.121094 158.265625 C 82.199219 158.175781 83.277344 158.058594 84.351562 157.910156 C 85.425781 157.765625 86.496094 157.585938 87.558594 157.382812 C 88.621094 157.175781 89.679688 156.9375 90.730469 156.671875 C 91.78125 156.40625 92.824219 156.113281 93.859375 155.792969 C 94.894531 155.46875 95.917969 155.117188 96.933594 154.738281 C 97.949219 154.359375 98.953125 153.949219 99.949219 153.515625 C 100.941406 153.078125 101.921875 152.617188 102.890625 152.128906 C 103.855469 151.636719 104.808594 151.121094 105.75 150.582031 C 106.6875 150.039062 107.613281 149.46875 108.519531 148.875 C 109.429688 148.285156 110.320312 147.664062 111.191406 147.023438 C 112.066406 146.378906 112.921875 145.714844 113.757812 145.023438 C 114.597656 144.332031 115.414062 143.621094 116.210938 142.886719 C 117.011719 142.148438 117.789062 141.394531 118.542969 140.613281 C 119.300781 139.835938 120.035156 139.039062 120.746094 138.21875 C 121.460938 137.398438 122.148438 136.5625 122.816406 135.703125 C 123.480469 134.847656 124.125 133.972656 124.742188 133.078125 C 125.359375 132.1875 125.953125 131.277344 126.523438 130.351562 C 127.089844 129.425781 127.632812 128.484375 128.148438 127.53125 C 128.664062 126.574219 129.15625 125.605469 129.617188 124.625 C 130.082031 123.640625 130.515625 122.644531 130.925781 121.640625 C 131.332031 120.632812 131.714844 119.613281 132.066406 118.585938 C 132.417969 117.558594 132.742188 116.523438 133.039062 115.476562 C 133.332031 114.429688 133.601562 113.378906 133.835938 112.316406 C 134.074219 111.257812 134.28125 110.191406 134.460938 109.117188 C 134.640625 108.046875 134.789062 106.96875 134.90625 105.890625 Z M 116.078125 105.890625 " fill-opacity="1" fill-rule="nonzero"/><path fill="#ffffff" d="M 36.695312 143.003906 L 36.695312 105.890625 L 17.859375 105.890625 C 18.238281 109.425781 18.933594 112.902344 19.945312 116.3125 C 20.957031 119.722656 22.265625 123.011719 23.875 126.183594 C 25.484375 129.355469 27.367188 132.351562 29.519531 135.179688 C 31.675781 138.007812 34.066406 140.613281 36.695312 143.003906 Z M 36.695312 143.003906 " fill-opacity="1" fill-rule="nonzero"/><path fill="#ffffff" d="M 135.261719 99.417969 C 135.28125 97.472656 135.207031 95.527344 135.035156 93.589844 C 134.863281 91.652344 134.59375 89.726562 134.234375 87.8125 C 133.871094 85.898438 133.417969 84.011719 132.871094 82.144531 C 132.320312 80.277344 131.683594 78.441406 130.953125 76.636719 C 130.226562 74.832031 129.410156 73.066406 128.507812 71.34375 C 127.601562 69.621094 126.617188 67.949219 125.550781 66.324219 C 124.480469 64.695312 123.335938 63.128906 122.113281 61.617188 C 120.890625 60.105469 119.597656 58.65625 118.230469 57.273438 C 116.867188 55.890625 115.4375 54.578125 113.941406 53.335938 C 112.445312 52.09375 110.894531 50.929688 109.285156 49.84375 C 107.675781 48.753906 106.015625 47.75 104.308594 46.828125 C 102.597656 45.902344 100.847656 45.066406 99.058594 44.316406 C 97.265625 43.566406 95.441406 42.910156 93.585938 42.339844 C 91.730469 41.773438 89.851562 41.296875 87.945312 40.914062 C 86.042969 40.53125 84.125 40.246094 82.195312 40.054688 C 80.265625 39.859375 78.328125 39.765625 76.386719 39.765625 C 74.445312 39.765625 72.507812 39.859375 70.578125 40.054688 C 68.648438 40.246094 66.730469 40.53125 64.828125 40.914062 C 62.921875 41.296875 61.042969 41.773438 59.1875 42.339844 C 57.332031 42.910156 55.507812 43.566406 53.714844 44.316406 C 51.925781 45.066406 50.175781 45.902344 48.464844 46.828125 C 46.757812 47.75 45.097656 48.753906 43.488281 49.84375 C 41.878906 50.929688 40.328125 52.09375 38.832031 53.335938 C 37.335938 54.578125 35.90625 55.890625 34.542969 57.273438 C 33.175781 58.65625 31.882812 60.105469 30.660156 61.617188 C 29.4375 63.128906 28.292969 64.695312 27.222656 66.324219 C 26.15625 67.949219 25.171875 69.621094 24.265625 71.34375 C 23.363281 73.066406 22.546875 74.832031 21.820312 76.636719 C 21.089844 78.441406 20.453125 80.277344 19.902344 82.144531 C 19.355469 84.011719 18.902344 85.898438 18.539062 87.8125 C 18.179688 89.726562 17.910156 91.652344 17.738281 93.589844 C 17.566406 95.527344 17.492188 97.472656 17.511719 99.417969 C 17.511719 100.734375 17.554688 102.050781 17.640625 103.355469 L 76.390625 49.265625 L 135.136719 103.355469 C 135.21875 102.050781 135.261719 100.738281 135.261719 99.417969 Z M 135.261719 99.417969 " fill-opacity="1" fill-rule="nonzero"/><g fill="#ffffff" fill-opacity="1"><g transform="translate(155.291709, 76.854519)"><g><path d="M 14.296875 -29.5 L 14.296875 0 L 3.453125 0 L 3.453125 -47.546875 L 14.296875 -47.546875 L 33.1875 -18.03125 L 33.3125 -18.03125 L 33.3125 -47.546875 L 44.140625 -47.546875 L 44.140625 0 L 33.3125 0 L 14.40625 -29.5 Z M 14.296875 -29.5 "/></g></g></g><g fill="#ffffff" fill-opacity="1"><g transform="translate(202.885376, 76.854519)"><g><path d="M 27.609375 -47.546875 L 46.796875 0 L 35.15625 0 L 31.640625 -9.515625 L 13.546875 -9.515625 L 10.03125 0 L -1.609375 0 L 17.578125 -47.546875 Z M 27.953125 -19.015625 L 22.640625 -32.84375 L 22.53125 -32.84375 L 17.234375 -19.015625 Z M 27.953125 -19.015625 "/></g></g></g><g fill="#ffffff" fill-opacity="1"><g transform="translate(248.05903, 76.854519)"><g><path d="M 0.46875 -38.03125 L 0.46875 -47.546875 L 33.890625 -47.546875 L 33.890625 -38.03125 L 22.59375 -38.03125 L 22.59375 0 L 11.75 0 L 11.75 -38.03125 Z M 0.46875 -38.03125 "/></g></g></g><g fill="#ffffff" fill-opacity="1"><g transform="translate(282.400226, 76.854519)"><g><path d="M 14.296875 -47.546875 L 14.296875 0 L 3.453125 0 L 3.453125 -47.546875 Z M 14.296875 -47.546875 "/></g></g></g><g fill="#ffffff" fill-opacity="1"><g transform="translate(300.147013, 76.854519)"><g><path d="M 1.328125 -23.796875 C 1.328125 -30.671875 3.671875 -36.488281 8.359375 -41.25 C 13.046875 -46.019531 18.691406 -48.40625 25.296875 -48.40625 C 31.941406 -48.40625 37.585938 -46.03125 42.234375 -41.28125 C 46.890625 -36.539062 49.21875 -30.710938 49.21875 -23.796875 C 49.21875 -16.847656 46.929688 -11 42.359375 -6.25 C 37.785156 -1.507812 32.097656 0.859375 25.296875 0.859375 C 18.347656 0.859375 12.613281 -1.488281 8.09375 -6.1875 C 3.582031 -10.894531 1.328125 -16.765625 1.328125 -23.796875 Z M 13.015625 -23.796875 C 13.015625 -21.296875 13.398438 -19.019531 14.171875 -16.96875 C 14.941406 -14.914062 16.285156 -13.175781 18.203125 -11.75 C 20.128906 -10.332031 22.492188 -9.625 25.296875 -9.625 C 29.328125 -9.625 32.367188 -11.003906 34.421875 -13.765625 C 36.484375 -16.535156 37.515625 -19.878906 37.515625 -23.796875 C 37.515625 -27.679688 36.46875 -31.015625 34.375 -33.796875 C 32.28125 -36.578125 29.253906 -37.96875 25.296875 -37.96875 C 21.378906 -37.96875 18.351562 -36.578125 16.21875 -33.796875 C 14.082031 -31.015625 13.015625 -27.679688 13.015625 -23.796875 Z M 13.015625 -23.796875 "/></g></g></g><g fill="#ffffff" fill-opacity="1"><g transform="translate(350.679282, 76.854519)"><g><path d="M 14.296875 -29.5 L 14.296875 0 L 3.453125 0 L 3.453125 -47.546875 L 14.296875 -47.546875 L 33.1875 -18.03125 L 33.3125 -18.03125 L 33.3125 -47.546875 L 44.140625 -47.546875 L 44.140625 0 L 33.3125 0 L 14.40625 -29.5 Z M 14.296875 -29.5 "/></g></g></g><g fill="#ffffff" fill-opacity="1"><g transform="translate(398.27296, 76.854519)"><g><path d="M 27.609375 -47.546875 L 46.796875 0 L 35.15625 0 L 31.640625 -9.515625 L 13.546875 -9.515625 L 10.03125 0 L -1.609375 0 L 17.578125 -47.546875 Z M 27.953125 -19.015625 L 22.640625 -32.84375 L 22.53125 -32.84375 L 17.234375 -19.015625 Z M 27.953125 -19.015625 "/></g></g></g><g fill="#ffffff" fill-opacity="1"><g transform="translate(443.446604, 76.854519)"><g><path d="M 14.296875 -47.546875 L 14.296875 -9.515625 L 30.65625 -9.515625 L 30.65625 0 L 3.453125 0 L 3.453125 -47.546875 Z M 14.296875 -47.546875 "/></g></g></g><g fill="#05d561" fill-opacity="1"><g transform="translate(160.972993, 156.906853)"><g><path d="M 9.90625 -56.234375 L 21.609375 -66.390625 L 26.859375 -59.75 L 13.140625 -51.8125 Z M 30.65625 -47.546875 L 30.65625 -38.03125 L 14.296875 -38.03125 L 14.296875 -28.578125 L 29.96875 -28.578125 L 29.96875 -19.078125 L 14.296875 -19.078125 L 14.296875 -9.515625 L 30.65625 -9.515625 L 30.65625 0 L 3.453125 0 L 3.453125 -47.546875 Z M 30.65625 -47.546875 "/></g></g></g><g fill="#05d561" fill-opacity="1"><g transform="translate(194.392274, 156.906853)"><g><path d="M 28.75 -9.796875 C 30.40625 -9.796875 32.007812 -10.046875 33.5625 -10.546875 C 35.125 -11.046875 36.269531 -11.523438 37 -11.984375 L 38.09375 -12.734375 L 42.703125 -3.515625 C 42.546875 -3.398438 42.332031 -3.242188 42.0625 -3.046875 C 41.789062 -2.859375 41.164062 -2.503906 40.1875 -1.984375 C 39.207031 -1.460938 38.160156 -1.007812 37.046875 -0.625 C 35.929688 -0.25 34.472656 0.0859375 32.671875 0.390625 C 30.867188 0.703125 29.003906 0.859375 27.078125 0.859375 C 22.660156 0.859375 18.472656 -0.222656 14.515625 -2.390625 C 10.566406 -4.554688 7.378906 -7.539062 4.953125 -11.34375 C 2.535156 -15.15625 1.328125 -19.269531 1.328125 -23.6875 C 1.328125 -27.03125 2.035156 -30.238281 3.453125 -33.3125 C 4.878906 -36.382812 6.769531 -39.015625 9.125 -41.203125 C 11.488281 -43.390625 14.242188 -45.132812 17.390625 -46.4375 C 20.546875 -47.75 23.773438 -48.40625 27.078125 -48.40625 C 30.148438 -48.40625 32.984375 -48.039062 35.578125 -47.3125 C 38.171875 -46.582031 40.007812 -45.851562 41.09375 -45.125 L 42.703125 -44.03125 L 38.09375 -34.8125 C 37.820312 -35.039062 37.414062 -35.316406 36.875 -35.640625 C 36.34375 -35.960938 35.269531 -36.394531 33.65625 -36.9375 C 32.039062 -37.476562 30.40625 -37.75 28.75 -37.75 C 26.144531 -37.75 23.800781 -37.320312 21.71875 -36.46875 C 19.644531 -35.625 18.003906 -34.507812 16.796875 -33.125 C 15.585938 -31.75 14.664062 -30.265625 14.03125 -28.671875 C 13.394531 -27.078125 13.078125 -25.453125 13.078125 -23.796875 C 13.078125 -20.179688 14.429688 -16.941406 17.140625 -14.078125 C 19.847656 -11.222656 23.71875 -9.796875 28.75 -9.796875 Z M 28.75 -9.796875 "/></g></g></g><g fill="#05d561" fill-opacity="1"><g transform="translate(237.779729, 156.906853)"><g><path d="M 1.328125 -23.796875 C 1.328125 -30.671875 3.671875 -36.488281 8.359375 -41.25 C 13.046875 -46.019531 18.691406 -48.40625 25.296875 -48.40625 C 31.941406 -48.40625 37.585938 -46.03125 42.234375 -41.28125 C 46.890625 -36.539062 49.21875 -30.710938 49.21875 -23.796875 C 49.21875 -16.847656 46.929688 -11 42.359375 -6.25 C 37.785156 -1.507812 32.097656 0.859375 25.296875 0.859375 C 18.347656 0.859375 12.613281 -1.488281 8.09375 -6.1875 C 3.582031 -10.894531 1.328125 -16.765625 1.328125 -23.796875 Z M 13.015625 -23.796875 C 13.015625 -21.296875 13.398438 -19.019531 14.171875 -16.96875 C 14.941406 -14.914062 16.285156 -13.175781 18.203125 -11.75 C 20.128906 -10.332031 22.492188 -9.625 25.296875 -9.625 C 29.328125 -9.625 32.367188 -11.003906 34.421875 -13.765625 C 36.484375 -16.535156 37.515625 -19.878906 37.515625 -23.796875 C 37.515625 -27.679688 36.46875 -31.015625 34.375 -33.796875 C 32.28125 -36.578125 29.253906 -37.96875 25.296875 -37.96875 C 21.378906 -37.96875 18.351562 -36.578125 16.21875 -33.796875 C 14.082031 -31.015625 13.015625 -27.679688 13.015625 -23.796875 Z M 13.015625 -23.796875 "/></g></g></g><g fill="#05d561" fill-opacity="1"><g transform="translate(288.311986, 156.906853)"><g><path d="M 14.296875 -47.546875 L 14.296875 -9.515625 L 30.65625 -9.515625 L 30.65625 0 L 3.453125 0 L 3.453125 -47.546875 Z M 14.296875 -47.546875 "/></g></g></g><g fill="#05d561" fill-opacity="1"><g transform="translate(320.866981, 156.906853)"><g><path d="M 1.328125 -23.796875 C 1.328125 -30.671875 3.671875 -36.488281 8.359375 -41.25 C 13.046875 -46.019531 18.691406 -48.40625 25.296875 -48.40625 C 31.941406 -48.40625 37.585938 -46.03125 42.234375 -41.28125 C 46.890625 -36.539062 49.21875 -30.710938 49.21875 -23.796875 C 49.21875 -16.847656 46.929688 -11 42.359375 -6.25 C 37.785156 -1.507812 32.097656 0.859375 25.296875 0.859375 C 18.347656 0.859375 12.613281 -1.488281 8.09375 -6.1875 C 3.582031 -10.894531 1.328125 -16.765625 1.328125 -23.796875 Z M 13.015625 -23.796875 C 13.015625 -21.296875 13.398438 -19.019531 14.171875 -16.96875 C 14.941406 -14.914062 16.285156 -13.175781 18.203125 -11.75 C 20.128906 -10.332031 22.492188 -9.625 25.296875 -9.625 C 29.328125 -9.625 32.367188 -11.003906 34.421875 -13.765625 C 36.484375 -16.535156 37.515625 -19.878906 37.515625 -23.796875 C 37.515625 -27.679688 36.46875 -31.015625 34.375 -33.796875 C 32.28125 -36.578125 29.253906 -37.96875 25.296875 -37.96875 C 21.378906 -37.96875 18.351562 -36.578125 16.21875 -33.796875 C 14.082031 -31.015625 13.015625 -27.679688 13.015625 -23.796875 Z M 13.015625 -23.796875 "/></g></g></g><g fill="#05d561" fill-opacity="1"><g transform="translate(371.399238, 156.906853)"><g><path d="M 46.453125 -26.625 L 46.453125 -16.3125 C 45.222656 -10.664062 42.53125 -6.390625 38.375 -3.484375 C 34.226562 -0.585938 29.597656 0.859375 24.484375 0.859375 C 18.078125 0.859375 12.613281 -1.539062 8.09375 -6.34375 C 3.582031 -11.144531 1.328125 -16.941406 1.328125 -23.734375 C 1.328125 -30.648438 3.535156 -36.488281 7.953125 -41.25 C 12.367188 -46.019531 17.878906 -48.40625 24.484375 -48.40625 C 32.210938 -48.40625 38.320312 -45.695312 42.8125 -40.28125 L 35.734375 -32.5 C 33.191406 -36.570312 29.65625 -38.609375 25.125 -38.609375 C 21.78125 -38.609375 18.925781 -37.15625 16.5625 -34.25 C 14.195312 -31.351562 13.015625 -27.847656 13.015625 -23.734375 C 13.015625 -19.703125 14.195312 -16.253906 16.5625 -13.390625 C 18.925781 -10.535156 21.78125 -9.109375 25.125 -9.109375 C 27.894531 -9.109375 30.304688 -9.941406 32.359375 -11.609375 C 34.410156 -13.285156 35.4375 -15.503906 35.4375 -18.265625 L 24.484375 -18.265625 L 24.484375 -26.625 Z M 46.453125 -26.625 "/></g></g></g><g fill="#05d561" fill-opacity="1"><g transform="translate(419.165753, 156.906853)"><g><path d="M 14.296875 -47.546875 L 14.296875 0 L 3.453125 0 L 3.453125 -47.546875 Z M 14.296875 -47.546875 "/></g></g></g><g fill="#05d561" fill-opacity="1"><g transform="translate(436.912551, 156.906853)"><g><path d="M 30.65625 -47.546875 L 30.65625 -38.03125 L 14.296875 -38.03125 L 14.296875 -28.578125 L 29.96875 -28.578125 L 29.96875 -19.078125 L 14.296875 -19.078125 L 14.296875 -9.515625 L 30.65625 -9.515625 L 30.65625 0 L 3.453125 0 L 3.453125 -47.546875 Z M 30.65625 -47.546875 "/></g></g></g></svg>