<?xml version="1.0" encoding="UTF-8"?>
<svg version="1.1" viewBox="0 0 100.898 120.551" xmlns="http://www.w3.org/2000/svg">
<g transform="translate(355.77 -29.296)">
<rect x="-306.93" y="49.246" width="47.315" height="67.029" rx="2.105" ry="3.802" fill="#84cff3" stroke-width=".131"/>
<path d="M-351.86 149.833c-.116-.01-.22-.03-.232-.047-.012-.016-.144-.055-.295-.085-1.536-.308-2.935-1.707-3.244-3.244-.03-.15-.074-.286-.098-.303-.056-.038-.061-98.092-.006-98.216.02-.047.08-.25.134-.45a4.386 4.386 0 0 1 2.82-3.016c.53-.177.92-.214 2.25-.214.69 0 1.256.005 1.256.012 0 .164.52 2.486.834 3.73.287 1.133.47 1.956.573 2.587.223 1.353.234 1.4.416 1.767a2.41 2.41 0 0 0 1.473 1.22c.188.054.354.067.694.052.387-.016.554-.05 1.247-.254.44-.13 1.035-.274 1.324-.322.993-.163 1.208-.235 1.61-.54.184-.14.544-.561.585-.685.01-.03.121.01.288.102.589.324 1.21.359 2.06.117a22.456 22.456 0 0 1 2.123-.504c.76-.14 1-.22 1.34-.446a2.076 2.076 0 0 0 .842-2.34.866.866 0 0 1-.05-.229c.007-.008.198.133.422.312.732.585 1.52.922 2.556 1.094 1.438.238 2.164.226 3.575-.06 2.69-.545 3.845-.994 4.657-1.813l.387-.392.243.144c.435.256.728.332 1.274.332.459 0 .546-.015 1.682-.299.66-.164 1.36-.33 1.556-.368.197-.039.538-.115.757-.17.22-.054.708-.156 1.083-.227.376-.07.868-.174 1.094-.23.225-.058.6-.135.83-.173.558-.09.888-.201 1.194-.399a2.428 2.428 0 0 0 1.12-1.778l.03-.24h26.297c28.525 0 26.605-.016 27.29.214a4.386 4.386 0 0 1 2.82 3.016c.054.2.114.403.134.45.056.124.05 98.178-.006 98.216-.024.017-.068.153-.098.303-.239 1.19-1.147 2.338-2.296 2.9-.401.197-.955.38-1.147.38-.048 0-.096.025-.106.053-.014.043-9.363.054-46.55.056-25.594.002-46.628-.004-46.743-.013zm10.201-6.348c.487-.23.863-.647 1.055-1.174.07-.195.09-.343.09-.69 0-.348-.02-.495-.09-.69-.319-.874-1.052-1.37-1.952-1.318-.32.018-.417.043-.681.173-.807.399-1.26 1.356-1.07 2.264.107.516.499 1.084.915 1.328.37.216.576.266 1.04.249.365-.013.46-.033.693-.142zm-1.127-.324c-.649-.213-1.01-.699-1.053-1.416-.043-.737.223-1.235.831-1.558.161-.086.248-.101.589-.101.34 0 .427.015.587.1.295.157.413.258.567.486.459.678.32 1.768-.285 2.229-.345.263-.88.376-1.236.26zm22.537.396a1.94 1.94 0 0 0 .423-.19c.2-.136.218-.134.267.03.037.126.055.138.208.138h.169l.01-1.417c.011-1.327.007-1.43-.072-1.64a1.142 1.142 0 0 0-.585-.66c-.533-.283-1.285-.277-1.883.016-.165.08-.312.177-.326.214-.032.084.099.311.18.311.033 0 .16-.047.282-.105.312-.147.618-.204.965-.177.49.037.757.188.907.513.078.167.111.61.047.61a2.4 2.4 0 0 1-.284-.09c-.345-.126-.96-.153-1.325-.06-.494.126-.867.417-1.037.81-.168.389-.052.993.252 1.31.404.421 1.166.584 1.802.387zm-1.049-.46c-.39-.134-.597-.406-.597-.783 0-.406.304-.72.794-.823.344-.071.898-.029 1.204.093l.252.1.012.535.012.535-.228.15a1.992 1.992 0 0 1-.428.212 1.99 1.99 0 0 1-1.021-.019zm38.06.46a1.94 1.94 0 0 0 .423-.19c.199-.136.218-.134.267.03.036.126.055.138.208.138h.168l.011-1.403c.007-.864-.006-1.464-.032-1.563-.104-.385-.496-.761-.924-.885-.483-.14-1.1-.08-1.584.151-.33.159-.386.233-.287.385.1.154.172.16.419.04.311-.153.616-.21.973-.183.66.05.983.357.983.937v.222l-.263-.108c-.526-.216-1.37-.172-1.83.097-.446.262-.658.614-.656 1.09.003.619.383 1.085 1.025 1.257.333.09.781.083 1.099-.015zm-1.049-.457c-.266-.095-.414-.223-.518-.449a.768.768 0 0 1 .281-.986c.108-.068.303-.147.433-.174.345-.071.899-.029 1.204.093l.253.1.011.53.012.53-.15.114c-.277.212-.517.292-.925.307-.291.01-.43-.004-.6-.065zm-62.674.413c.08-.15 1.808-5.093 1.808-5.172 0-.128-.296-.18-.43-.074-.036.029-.429 1.103-.872 2.387-.444 1.283-.822 2.35-.841 2.369-.042.042.004.166-.948-2.535-.427-1.213-.8-2.22-.83-2.239-.087-.055-.355-.04-.407.024-.038.046.143.596.838 2.55.487 1.37.912 2.554.945 2.632l.06.143h.316c.273 0 .322-.012.361-.085zm9.454-.137c.014-.216.014-.216-.258-.261a.684.684 0 0 1-.315-.169l-.154-.141-.013-1.35-.012-1.348h.333c.378 0 .441-.04.42-.26l-.013-.14-.368-.012-.368-.012v-.456c0-.52-.027-.573-.269-.527-.082.015-.168.05-.19.078-.024.028-.048.239-.055.47l-.012.417-.252.021-.253.021-.013.164c-.017.201.028.234.315.235h.219l.013 1.357c.013 1.324.015 1.361.111 1.556.175.354.565.586.953.566l.169-.009.012-.2zm7.51.136c.363-.112.826-.454.826-.61 0-.03-.067-.096-.148-.146-.14-.086-.155-.088-.242-.023a83.07 83.07 0 0 1-.238.173c-.358.26-1.044.303-1.457.092-.365-.187-.678-.621-.756-1.051l-.028-.158h1.552c1.151 0 1.565-.013 1.603-.05.137-.138.012-.878-.215-1.264-.58-.991-2.067-1.144-2.853-.292-.38.411-.54.833-.54 1.426-.002.915.52 1.676 1.324 1.93.27.085.852.072 1.172-.027zm-2.009-2.178c-.03-.049.05-.328.148-.522.342-.672 1.209-.921 1.901-.546.349.189.617.574.631.907l.007.174-1.332.012c-.733.006-1.343-.005-1.355-.025zm16.765 2.18c.733-.226 1.19-.868 1.24-1.746.062-1.05-.505-1.873-1.42-2.064-.395-.083-.708-.05-1.046.11l-.255.12v-.809c0-.574-.015-.825-.05-.86-.057-.057-.322-.067-.402-.016-.042.026-.051.587-.042 2.66l.01 2.625h.186c.172 0 .189-.01.232-.14l.047-.139.122.096c.31.244.892.313 1.378.163zm-1.003-.44a1.45 1.45 0 0 1-.305-.213l-.173-.156v-2.264l.2-.126c.265-.168.482-.222.8-.197.653.052 1.114.519 1.232 1.248.115.717-.288 1.503-.873 1.702-.239.081-.701.085-.881.006zm6.256.438c.306-.103.513-.231.71-.439l.147-.154-.137-.124a.573.573 0 0 0-.177-.123c-.022 0-.105.057-.184.127-.274.24-.506.315-.974.315-.374 0-.443-.012-.63-.112-.384-.204-.696-.63-.761-1.037l-.028-.176h1.553c1.152 0 1.566-.013 1.603-.05.07-.07.063-.473-.014-.77-.236-.906-1.072-1.456-2.013-1.323-.394.056-.69.198-.976.468-.422.4-.605.841-.605 1.46 0 .967.495 1.701 1.325 1.965.272.086.865.072 1.16-.027zm-2.006-2.2c-.012-.03.01-.148.048-.26.206-.608.676-.955 1.297-.957.642-.002 1.132.34 1.314.917.12.378.2.356-1.31.356-1.068 0-1.331-.01-1.349-.056zm11.903 2.225a1.65 1.65 0 0 0 .362-.167c.173-.114.181-.111.225.072.026.11.042.117.206.105l.177-.013V138.235h-.42l-.011.8c-.006.439-.02.822-.03.85-.014.038-.073.024-.211-.05-.796-.422-1.838-.072-2.286.77a2.163 2.163 0 0 0-.197 1.493c.157.742.61 1.262 1.25 1.434.291.078.685.08.935.006zm-.862-.481a1.186 1.186 0 0 1-.605-.487c-.512-.757-.284-1.934.447-2.308.45-.23 1.044-.187 1.39.1l.158.13v2.168l-.154.16a1.307 1.307 0 0 1-.326.236c-.223.102-.652.102-.91 0zm6.106.456c.305-.103.512-.231.71-.439l.147-.154-.137-.124a.574.574 0 0 0-.178-.123c-.022 0-.104.057-.184.127-.273.24-.505.315-.973.315-.375 0-.443-.012-.63-.112-.384-.204-.696-.63-.761-1.037l-.029-.176h1.553c1.152 0 1.567-.013 1.604-.05.07-.071.063-.473-.015-.772-.234-.901-1.076-1.453-2.012-1.32-.394.055-.69.197-.976.467-.423.4-.606.841-.606 1.46 0 .961.463 1.665 1.283 1.948.303.105.876.1 1.204-.01zm-2.006-2.2c-.012-.03.01-.148.048-.26.206-.608.676-.955 1.296-.957.642-.002 1.133.34 1.315.917.119.378.2.356-1.31.356-1.069 0-1.332-.01-1.349-.056zm18.55 2.228c.32-.085.562-.225.784-.453.732-.751.72-2.177-.026-2.922-.265-.266-.486-.382-.878-.464a1.535 1.535 0 0 0-1.033.113l-.255.12v-.809c0-.574-.015-.825-.05-.86-.07-.069-.35-.064-.408.007-.035.041-.045.772-.037 2.66l.01 2.603h.186c.173 0 .19-.01.233-.14l.047-.14.122.096c.287.226.858.309 1.305.19zm-.93-.466a1.45 1.45 0 0 1-.306-.213l-.172-.156v-2.264l.199-.126c.266-.169.482-.222.81-.198.642.046 1.095.498 1.22 1.22.129.735-.27 1.526-.87 1.73-.24.082-.701.086-.882.007zm12.988.417c.085-.187.002-.326-.219-.37-.254-.049-.448-.202-.502-.397-.025-.092-.044-.668-.044-1.387v-1.23h.326c.18-.001.35-.017.381-.037.035-.022.05-.096.042-.199l-.013-.164-.357-.02-.358-.022-.012-.475c-.013-.533-.022-.547-.298-.472l-.17.046-.013.45-.012.451-.25.013c-.268.014-.316.048-.317.224 0 .153.07.198.337.213l.23.013.021 1.388c.019 1.214.03 1.404.094 1.514.153.265.304.39.59.489.324.112.485.104.545-.028zm3.906.04c.397-.116.88-.45.88-.607 0-.042-.065-.117-.146-.167l-.146-.09-.158.127c-.411.328-1.03.433-1.504.254-.447-.168-.764-.571-.882-1.122l-.03-.137h1.535c.844 0 1.565-.011 1.602-.025.052-.02.066-.092.066-.338 0-.708-.385-1.335-.996-1.623-.589-.277-1.32-.224-1.84.133-1.28.882-1.006 3.08.448 3.582.284.098.857.105 1.171.013zm-1.956-2.201c-.044-.07.174-.588.324-.772.382-.466 1.127-.601 1.703-.31.373.19.683.644.683 1.002v.119h-1.343c-.775 0-1.353-.017-1.367-.04zm-71.016.817l.02-1.388.118-.2c.22-.376.731-.564 1.195-.44.12.032.236.047.257.034a.65.65 0 0 0 .112-.17c.07-.138.07-.146-.002-.2-.129-.094-.36-.138-.711-.138-.36.001-.585.074-.848.275-.17.13-.183.128-.184-.013 0-.181-.052-.228-.234-.213l-.164.013-.011 1.872c-.006 1.03-.002 1.896.01 1.926.014.037.085.05.221.042l.2-.013zm11.548 1.303c.05-.2-.009-.305-.188-.335-.207-.035-.342-.178-.387-.409-.019-.1-.036-1.14-.037-2.31-.002-2.335.016-2.183-.247-2.181-.25.002-.237-.1-.25 2.09-.013 2.048.012 2.544.141 2.794a.818.818 0 0 0 .743.455c.178.002.202-.01.225-.104zm17.75-.003c.042-.168-.043-.303-.21-.335-.188-.035-.306-.148-.36-.345-.029-.1-.045-.944-.045-2.305 0-1.613-.013-2.16-.05-2.197-.073-.072-.31-.063-.389.015-.058.059-.066.313-.066 2.16 0 1.243.018 2.187.043 2.321.091.484.422.795.846.795.183 0 .206-.011.23-.109zm16.923-1.616l.02-1.703.747-.012.747-.011v1.678c0 1.876-.015 1.787.302 1.765l.182-.013v-3.828l-.989-.02-.988-.022.005-.297c.003-.178.031-.348.072-.425.069-.134.29-.266.447-.266.167 0 .254-.077.254-.228 0-.197-.082-.25-.326-.214-.6.089-.892.425-.934 1.073l-.023.357-.168.021-.169.021v.379l.169.02.168.022.01 1.661c.006.914.02 1.686.032 1.716.014.038.084.051.22.042l.2-.013zm14.34 1.643c.047-.087.063-3.522.017-3.692-.03-.113-.256-.17-.39-.098-.088.047-.088.059-.088 1.931 0 1.037.012 1.897.028 1.913.015.015.11.028.209.028.135 0 .191-.02.224-.082zm3.05-.124c0-.185 0-.185-.2-.244-.149-.043-.224-.094-.285-.194-.078-.129-.082-.225-.082-2.35 0-1.958-.008-2.223-.066-2.282-.082-.082-.327-.086-.393-.007-.036.043-.045.662-.037 2.345.012 2.249.014 2.289.103 2.454.173.322.447.49.771.473l.19-.01zm2.156-1.717c.011-1.898.011-1.901-.078-1.949-.112-.06-.358-.016-.391.07-.014.036-.025.883-.025 1.883 0 1.394.012 1.83.052 1.87.03.03.131.047.242.04l.19-.012zm6.734-2.525c.138-.116.51-.653.51-.735 0-.062-.037-.075-.228-.075-.258 0-.265.006-.543.508-.117.213-.141.288-.103.326.073.073.263.06.364-.024zm-24.312-.215c.038-.024.051-.12.042-.325l-.012-.29h-.463l-.013.266c-.007.16.007.29.037.326.053.064.32.08.41.023zm12.35-.03c.07-.071.092-.458.03-.557-.024-.036-.105-.05-.242-.042l-.206.013-.013.291c-.009.204.003.301.042.325.091.058.318.04.388-.03zm5.193.007c.03-.035.045-.165.037-.326l-.012-.266h-.463l-.013.266c-.015.317.029.386.244.386.087 0 .18-.027.208-.06zm-67.965-5.816c.349-.364.634-.69.634-.726 0-.035-.323-.357-.716-.714-.394-.357-.734-.67-.756-.697-.027-.032.04-.152.209-.372 1.194-1.558 1.649-3.795 1.221-6.011-.57-2.95-2.77-4.948-5.635-5.113-1.611-.092-2.885.215-4.059.98-.675.44-1.195.97-1.68 1.716-1.318 2.026-1.485 5.07-.403 7.338.808 1.693 2.287 2.847 4.178 3.259.373.081.556.093 1.417.095.79 0 1.064-.014 1.367-.075.551-.11.921-.226 1.32-.411.194-.09.376-.165.405-.165.028 0 .437.35.909.777.47.427.879.777.906.778.027 0 .334-.296.683-.66zm-6.153-2.707a2.926 2.926 0 0 1-1.587-.748c-.81-.731-1.226-1.886-1.23-3.413-.006-2.26.864-3.764 2.435-4.212.47-.134 1.438-.135 1.925-.001.851.233 1.495.791 1.923 1.669.365.747.515 1.495.515 2.565 0 .812-.068 1.293-.268 1.891-.132.395-.391.906-.46.906-.021 0-.334-.27-.694-.6-.36-.329-.69-.604-.73-.611-.05-.008-.282.21-.713.671-.35.376-.637.697-.637.713 0 .032.376.396.805.777.154.137.276.267.27.289-.004.022-.064.055-.132.074-.194.055-1.103.075-1.422.03zm15.722 2.362c1.955-.405 3.234-1.493 3.685-3.135.225-.82.22-.697.237-5.342.01-2.382.006-4.375-.007-4.428l-.024-.096-1.418.011-1.419.011-.023 4.29c-.017 3.209-.036 4.354-.075 4.542-.236 1.123-.68 1.587-1.69 1.77-.375.068-1.177.076-1.546.016-.82-.133-1.467-.637-1.686-1.312-.166-.516-.174-.737-.174-5.045 0-2.297-.016-4.2-.035-4.23-.026-.041-.343-.05-1.44-.042l-1.406.011-.011 4.311c-.013 4.69-.01 4.765.224 5.584.118.412.368.964.569 1.256.689 1 1.905 1.668 3.445 1.89.612.087 2.247.052 2.794-.062zm7.71-.231c.038-.081.83-2.669.985-3.211l.038-.137h2.204c2.062 0 2.204.005 2.225.074l.384 1.251c.2.648.429 1.39.508 1.65l.146.474h1.447c.932 0 1.456-.015 1.473-.043.036-.058-.537-1.923-1.24-4.037-.806-2.425-1.39-3.98-2.24-5.972-.545-1.274-1.274-2.853-1.363-2.951-.065-.071-.162-.077-1.335-.076-.697 0-1.29.016-1.32.034-.066.042-.83 1.69-1.387 2.993-.83 1.945-1.422 3.516-2.2 5.846-.66 1.975-1.31 4.08-1.282 4.152.016.042.335.054 1.466.054h1.446zm1.804-5.651c-.039-.062.854-2.843 1.225-3.816.088-.232.178-.417.2-.413.05.01.223.424.445 1.065.351 1.011 1.006 3.117.983 3.156-.03.048-2.823.056-2.853.008zm17.402 5.686c.057-.057.067-.222.067-1.16 0-.673-.017-1.124-.044-1.174-.042-.08-.116-.082-2.629-.082h-2.585v-5.143c0-3.945-.011-5.156-.05-5.194-.037-.038-.413-.05-1.429-.05-1.323 0-1.38.002-1.422.081-.03.057-.04 2.066-.033 6.395.01 5.557.019 6.316.074 6.352.039.024 1.602.04 4.024.04 3.546 0 3.968-.007 4.027-.065zm4.832.013c.067-.049.071-.47.06-6.424l-.01-6.372h-2.86l-.01 6.372c-.01 5.953-.007 6.375.06 6.424.053.04.4.053 1.38.053.981 0 1.327-.013 1.38-.053zm9.556-.044c2.28-.414 3.509-1.7 3.51-3.672.003-1.5-.752-2.696-1.986-3.15-.11-.041-.2-.086-.2-.1 0-.015.109-.092.242-.171.335-.2.844-.724 1.01-1.04.221-.418.313-.835.317-1.443.012-1.839-.97-2.87-2.985-3.134-.39-.05-1.076-.063-3.65-.063-2.85 0-3.17.007-3.194.067-.014.037-.025 2.912-.025 6.39 0 5.979.004 6.327.073 6.37.05.03 1.076.04 3.291.03 2.757-.013 3.272-.025 3.597-.084zm-4.031-2.244c-.016-.016-.029-.77-.029-1.678 0-1.466.007-1.653.067-1.675.108-.042 2.527-.028 2.948.016.85.09 1.375.443 1.559 1.049.1.331.1 1.044-.002 1.337-.101.29-.382.596-.68.742-.434.212-.66.235-2.317.236-.835 0-1.53-.012-1.546-.027zm-.008-5.448c-.012-.03-.017-.67-.01-1.422l.01-1.367h1.41c1.478 0 1.673.02 2.04.2.216.107.428.307.527.5.199.385.183 1.08-.033 1.478-.131.24-.272.359-.623.523l-.25.117-1.525.013c-1.23.01-1.53.002-1.546-.042zm11.15 7.64c.033-.081.274-.852.533-1.713l.472-1.566h4.415l.47 1.535c.26.845.496 1.611.527 1.704l.056.168 1.461.011c1.456.011 1.462.01 1.462-.076 0-.097-.27-.989-.849-2.816-.94-2.967-1.958-5.664-3.084-8.18-.654-1.461-.859-1.888-.935-1.945-.052-.04-.383-.053-1.315-.053-.93 0-1.263.013-1.315.053-.04.029-.233.401-.432.827a76.134 76.134 0 0 0-3.356 8.57c-.47 1.441-1.08 3.437-1.08 3.54v.09h2.907zm1.804-5.613c-.067-.11 1.306-4.248 1.41-4.248.042 0 .346.78.59 1.514.398 1.2.87 2.732.848 2.754-.044.043-2.82.024-2.848-.02zm12.993 5.696c.06-.06.066-.59.066-5.215v-5.148l1.735-.011 1.735-.011v-2.398l-4.918-.01c-3.907-.01-4.925 0-4.952.042-.039.06-.047 2.22-.009 2.32.023.06.216.067 1.745.067h1.72l.01 5.174c.01 4.546.02 5.18.075 5.215.036.023.629.04 1.395.04 1.156 0 1.341-.008 1.398-.065zM-286.945 106c10.606-3.476 19.308-6.343 19.339-6.372.045-.044-.05-.178-.526-.744-7.488-8.9-38.183-45.206-38.22-45.206-.027 0-.099.052-.158.116-.078.083-33.35 41.053-36.26 44.65-.315.389-.362.466-.313.515.102.102 36.588 13.385 36.728 13.372.07-.007 8.804-2.856 19.41-6.331z" fill="#008ad1" stroke-width=".042"/>
<path d="M-345.958 52.246c-.133-.058-.402-.379-.427-.51a19.913 19.913 0 0 0-.217-1.199 5.028 5.028 0 0 1-.1-.62c0-.078-.037-.278-.082-.446a17.76 17.76 0 0 1-.163-.682 9.551 9.551 0 0 0-.196-.736 4.47 4.47 0 0 1-.144-.568 1.162 1.162 0 0 0-.084-.309c-.03-.054-.088-.29-.13-.525-.042-.235-.126-.631-.186-.88a3.996 3.996 0 0 1-.11-.613c0-.09-.038-.274-.085-.41a3.532 3.532 0 0 1-.127-.544 11.54 11.54 0 0 0-.141-.736c-.055-.242-.143-.64-.195-.883-.052-.243-.15-.678-.217-.967-.067-.29-.18-.8-.251-1.136l-.228-1.072a5.943 5.943 0 0 1-.1-.55c0-.048-.055-.257-.121-.463-.173-.538-.277-1.135-.241-1.376.037-.245.23-.51.491-.671.15-.092.387-.158 1.092-.303 1.384-.283 3.574-.81 3.855-.928.312-.13 1.589-.204 2.078-.12.79.136 1.123.26 1.656.617.718.482 1.586 1.662 1.847 2.511l.153.505c.045.15.126.415.181.589.111.354.174.617.233.988.023.139.06.344.085.455.024.112.045.424.047.694.007 1.225-.353 2.588-.854 3.246-.185.242-.283.434-.283.552 0 .127.222.47.503.774.398.434.855.993 1.114 1.366.28.401.5.688.745.967.583.665.72.837.813 1.026.168.335.125.585-.127.74-.153.095-.776.25-1.526.38-.285.049-.597.117-.694.151-.35.125-1.142.31-1.324.31-.28 0-.45-.103-.673-.41a32.865 32.865 0 0 0-1.068-1.365 6.434 6.434 0 0 1-.327-.43c-.322-.462-.829-1.097-.969-1.215-.158-.133-.336-.145-.441-.029-.064.07-.072.132-.052.39.014.167.056.39.094.494.068.188.303 1.159.426 1.767.035.173.092.41.127.525.158.531.107.832-.165.974-.075.039-.335.095-.578.125-.63.08-.892.139-2.195.503-.406.113-.546.122-.719.047zm2.994-9.512c.553-.195.74-.578.676-1.382a4.432 4.432 0 0 0-.077-.59 2.534 2.534 0 0 1-.067-.326c-.064-.47-.506-1.116-.893-1.303-.288-.14-.696-.134-.92.011-.555.358-.565.59-.105 2.58.067.287.162.562.228.656.065.092.372.32.503.373.143.058.463.049.655-.019zm12.832 5.963c-.977-.056-1.87-.31-2.43-.693-.521-.355-1.83-1.638-2.122-2.08a8.958 8.958 0 0 1-.77-1.551 15.67 15.67 0 0 0-.207-.539c-.111-.261-.477-1.56-.587-2.085a11.483 11.483 0 0 1-.15-.93 8.09 8.09 0 0 0-.087-.615c-.02-.095-.05-.616-.065-1.156l-.027-.984.132-.638c.072-.35.17-.786.215-.967.235-.925 1.07-2.15 1.963-2.88.342-.28.911-.649 1.17-.76 1.065-.453 2.07-.807 2.482-.874.161-.026.36-.074.44-.107.142-.058 1.007-.228 1.615-.319.403-.06.657.004.827.21.133.16.199.354.307.91.036.185.142.63.236.988.343 1.31.35 1.548.061 1.885-.18.21-.293.274-.61.344-.202.045-.276.042-.525-.02-.333-.084-.585-.072-1.28.063-1.025.2-1.517.427-1.986.918-.26.273-.331.377-.405.6-.165.497-.178.673-.133 1.675.067 1.469.352 2.954.683 3.56.224.411.877 1.324 1.127 1.576.334.338.564.436 1.009.434.582-.004.934-.123 1.054-.357.11-.217.103-.37-.04-.838a6.445 6.445 0 0 1-.17-.692c-.071-.438-.117-.548-.296-.71-.21-.19-.468-.235-.779-.137-.362.114-.51.088-.748-.135-.135-.126-.218-.375-.307-.928a17.887 17.887 0 0 0-.192-.946c-.33-1.43-.102-1.705 1.646-1.98.468-.073.619-.108 1.388-.321 1.08-.3 1.056-.295 1.29-.246.46.095.728.388.812.887.02.124.065.34.098.478.034.139.094.413.133.61.039.196.147.675.24 1.064.092.388.159.732.147.763-.012.031.021.224.074.43.053.204.138.584.19.843.05.259.134.61.187.778.2.636.236.78.236.93 0 .085.037.263.081.396.045.133.112.45.15.705a9.1 9.1 0 0 0 .15.78c.09.354.102.576.04.797-.048.169-.458.558-.813.772-.229.137-1.64.617-2.048.697-.65.126-1.449.273-1.976.363-.327.055-.828.066-1.43.032zm8.685-1.965c-.16-.07-.475-.41-.5-.538l-.064-.32a2.25 2.25 0 0 1-.046-.338c0-.063-.057-.346-.126-.63a5.414 5.414 0 0 1-.126-.621c0-.057-.039-.218-.086-.358a6.241 6.241 0 0 1-.165-.703c-.044-.247-.12-.63-.17-.849-.048-.22-.105-.513-.124-.652a1.61 1.61 0 0 0-.099-.378 2.24 2.24 0 0 1-.112-.484 8.85 8.85 0 0 0-.13-.694c-.142-.592-.174-.753-.189-.948a3.256 3.256 0 0 0-.143-.574 2.862 2.862 0 0 1-.128-.475c0-.05-.065-.322-.145-.603-.079-.282-.21-.89-.291-1.353-.18-1.02-.428-2.23-.508-2.473a9.192 9.192 0 0 1-.255-1.081 6.592 6.592 0 0 0-.117-.525 2.162 2.162 0 0 1-.05-.484c0-.28.014-.337.126-.505a.84.84 0 0 1 .32-.286c.18-.09 1-.268 1.76-.384.27-.042.625-.116 1.41-.295.092-.021.49-.098.883-.17.71-.129 1.619-.35 2.103-.51.506-.166.678-.205.92-.205.485-.001.663.225.766.973.036.263.13.745.21 1.073.164.678.18.977.066 1.192-.163.306-.58.453-2.27.801-.821.17-1.101.27-1.32.472-.169.158-.182.336-.07.922.09.46.117.536.26.718.32.406.445.428 1.312.23.254-.059.639-.139.855-.177a8.11 8.11 0 0 0 .733-.173c.394-.118.736-.13.938-.034.218.103.35.414.447 1.059.045.294.136.705.202.913.209.659.234.845.15 1.136-.04.138-.122.304-.182.367-.136.143-.438.259-.851.325-.174.027-.433.077-.577.11a2.37 2.37 0 0 1-.4.06c-.231 0-.96.203-1.186.33a.758.758 0 0 0-.403.66c0 .224.262 1.276.37 1.484a.605.605 0 0 0 .551.343c.107 0 .4-.038.653-.084.253-.046.56-.084.681-.084.303 0 1.19-.203 1.628-.374.172-.067.464-.057.664.024.133.053.212.128.337.321.14.217.163.286.163.49 0 .13.027.34.06.467.22.847.363 1.583.337 1.741-.08.48-.338.647-1.25.802-.213.036-.586.121-.83.19a6.359 6.359 0 0 1-.82.165 8.385 8.385 0 0 0-1 .212 11.21 11.21 0 0 1-1.009.23c-.213.031-.53.097-.703.144-.679.185-1.983.467-2.154.465a.943.943 0 0 1-.306-.057z" fill="#643089" stroke-width=".042"/>
</g>
</svg>
